<svg xmlns="http://www.w3.org/2000/svg" width="100" height="244" viewBox="0 0 100 244"><g><g><path fill="#014e56" d="M0 144C0 88.772 44.772 44 100 44s100 44.772 100 100-44.772 100-100 100S0 199.228 0 144zm100 33c18.225 0 33-14.775 33-33s-14.775-33-33-33-33 14.775-33 33 14.775 33 33 33z"/></g><g><path fill="#79c8c7" d="M0 144h100v4H0zm0 8h100v4H0zm0 8h100v4H0zm0 8h100v4H0zm0 8h100v4H0zm0 8h100v4H0z"/></g><g><path fill="#79c8c7" d="M49 40h4v4h-4zm0-8h4v4h-4zm0-8h4v4h-4zm0-8h4v4h-4zm0-8h4v4h-4zm0-8h4v4h-4zm-7 40h4v4h-4zm0-8h4v4h-4zm0-8h4v4h-4zm0-8h4v4h-4zm0-8h4v4h-4zm0-8h4v4h-4zm-7 40h4v4h-4zm0-8h4v4h-4zm0-8h4v4h-4zm0-8h4v4h-4zm0-8h4v4h-4zm0-8h4v4h-4zm-7 40h4v4h-4zm0-8h4v4h-4zm0-8h4v4h-4zm0-8h4v4h-4zm0-8h4v4h-4zm0-8h4v4h-4zm-7 40h4v4h-4zm0-8h4v4h-4zm0-8h4v4h-4zm0-8h4v4h-4zm0-8h4v4h-4zm0-8h4v4h-4zm-7 40h4v4h-4zm0-8h4v4h-4zm0-8h4v4h-4zm0-8h4v4h-4zm0-8h4v4h-4zm0-8h4v4h-4zM7 40h4v4H7zm0-8h4v4H7zm0-8h4v4H7zm0-8h4v4H7zm0-8h4v4H7zm0-8h4v4H7zM0 40h4v4H0zm0-8h4v4H0zm0-8h4v4H0zm0-8h4v4H0zm0-8h4v4H0zm0-8h4v4H0z"/></g></g></svg>